<svg xmlns="http://www.w3.org/2000/svg"><defs><symbol id="icon-facebook" viewBox="0 0 32 32"><path fill="var(--color1, #fff)" d="M23.999.007 19.849 0c-4.662 0-7.675 3.091-7.675 7.875v3.631H8.002a.652.652 0 0 0-.652.653v5.261c0 .36.292.652.652.652h4.172v13.275c0 .36.292.652.652.652h5.444c.36 0 .652-.292.652-.652V18.072H23.8c.36 0 .652-.292.652-.652l.002-5.261a.652.652 0 0 0-.653-.652h-4.88V8.429c0-1.479.352-2.23 2.28-2.23l2.796-.001c.36 0 .652-.292.652-.652V.661a.652.652 0 0 0-.652-.652z"/></symbol><symbol id="icon-instagram" viewBox="0 0 32 32"><path fill="var(--color1, #fff)" d="M22 0H10C4.478 0 0 4.478 0 10v12c0 5.522 4.478 10 10 10h12c5.522 0 10-4.478 10-10V10c0-5.522-4.478-10-10-10zm7 22c0 3.86-3.14 7-7 7H10c-3.86 0-7-3.14-7-7V10c0-3.86 3.14-7 7-7h12c3.86 0 7 3.14 7 7v12z"/><path fill="var(--color1, #fff)" d="M16 8a8 8 0 1 0 0 16 8 8 0 0 0 0-16zm0 13c-2.756 0-5-2.244-5-5 0-2.758 2.244-5 5-5s5 2.242 5 5c0 2.756-2.244 5-5 5zM24.6 8.466a1.066 1.066 0 1 0 0-2.131 1.066 1.066 0 0 0 0 2.131z"/></symbol><symbol id="icon-youtube" viewBox="0 0 32 32"><path fill="var(--color1, #fff)" d="M24.71 4.966H6.477A6.477 6.477 0 0 0 0 11.443v9.114c0 3.577 2.9 6.477 6.477 6.477H24.71c3.577 0 6.477-2.9 6.477-6.477v-9.114c0-3.577-2.9-6.477-6.477-6.477zm-4.38 11.477-8.528 4.067a.343.343 0 0 1-.49-.309v-8.389c0-.255.269-.421.497-.305l8.528 4.322a.342.342 0 0 1-.007.614z"/></symbol><symbol id="icon-bicycle" viewBox="0 0 32 32"><path fill="var(--color2, #d4c17f)" d="M8 27.2H.533a.533.533 0 1 0 0 1.066H8A.533.533 0 1 0 8 27.2zM6.4 26.133c3.529 0 6.4-2.871 6.4-6.4a6.35 6.35 0 0 0-1.984-4.633.534.534 0 0 0-.736.772 5.291 5.291 0 0 1 1.654 3.861c0 2.941-2.393 5.333-5.333 5.333s-5.333-2.393-5.333-5.333A5.34 5.34 0 0 1 6.401 14.4a.533.533 0 1 0 0-1.066c-3.529 0-6.4 2.871-6.4 6.4s2.871 6.4 6.4 6.4z"/><path fill="var(--color2, #d4c17f)" d="M9.067 11.199h.27L6.256 18.68a1.065 1.065 0 0 0-.923 1.052 1.068 1.068 0 0 0 2.134 0c0-.244-.085-.466-.224-.646l3.01-7.308 3.375 4.901a.532.532 0 1 0 .878-.605l-3.358-4.875h1.119c.882 0 1.6-.718 1.6-1.6s-.718-1.6-1.6-1.6h-3.2a.532.532 0 0 0-.533.533v2.133c0 .295.238.533.533.533zM9.6 9.066h2.667a.533.533 0 0 1 0 1.066H9.6V9.065zM25.067 13.866c0 .294.238.533.533.533 2.941 0 5.333 2.392 5.333 5.333s-2.393 5.333-5.333 5.333-5.333-2.393-5.333-5.333c0-1.598.708-3.099 1.943-4.117a.533.533 0 0 0-.68-.822 6.384 6.384 0 0 0-2.33 4.94c0 3.529 2.871 6.4 6.4 6.4s6.4-2.871 6.4-6.4c0-3.529-2.871-6.4-6.4-6.4a.532.532 0 0 0-.533.533zM16.533 27.2H11.2a.533.533 0 1 0 0 1.066h5.333a.533.533 0 1 0 0-1.066z"/><path fill="var(--color2, #d4c17f)" d="M16.533 17.142v-1.676a.533.533 0 1 0 0-1.066h-1.067a.532.532 0 1 0 0 1.066v1.676c-.918.238-1.6 1.066-1.6 2.058s.682 1.819 1.6 2.058v1.676a.532.532 0 1 0 0 1.066h1.067a.533.533 0 1 0 0-1.066v-1.676c.918-.239 1.6-1.067 1.6-2.058s-.682-1.819-1.6-2.058zM16 20.266a1.068 1.068 0 0 1 0-2.134 1.068 1.068 0 0 1 0 2.134zM24.778 19.061a1.06 1.06 0 0 0-.245.672 1.068 1.068 0 0 0 2.134 0c0-.528-.387-.964-.89-1.049l-2.407-6.418h3.807c.638 0 1.01-.51 1.079-.962l.533-2.667a.53.53 0 0 0-.522-.638h-4.8a.532.532 0 1 0 0 1.066h4.149l-.407 2.041c-.008.037-.031.089-.031.093h-4.207l-1.67-4.454c-.001-.002-.003-.003-.003-.005l-.001-.006-1.067-2.667a.534.534 0 0 0-.991.396l.972 2.427-2.006 3.51a.533.533 0 1 0 .925.529l1.57-2.747 1.283 3.422-4.065 4.572a.533.533 0 0 0 .796.709l3.691-4.152 2.372 6.326zM31.467 27.2h-8.533a.533.533 0 1 0 0 1.066h8.533a.533.533 0 1 0 0-1.066zM20.8 27.2h-1.067a.533.533 0 1 0 0 1.066H20.8a.533.533 0 1 0 0-1.066z"/></symbol><symbol id="icon-fountain" viewBox="0 0 32 32"><path fill="var(--color2, #d4c17f)" d="M21.356 1.849a.529.529 0 0 0 .218-.047c.153-.068.307-.133.464-.192a.533.533 0 0 0-.378-.998c-.177.067-.351.14-.522.217a.533.533 0 0 0 .219 1.02zM21.333 13.415a.532.532 0 0 0 .533-.533v-.092c0-.14.009-.278.027-.413a.533.533 0 1 0-1.058-.139c-.023.18-.036.366-.036.553v.092c0 .295.238.533.533.533zM18.667 13.547a.533.533 0 0 0 .533-.533v-.542a.533.533 0 1 0-1.066 0v.542c0 .294.238.533.533.533zM21.729 5.111c-.172.094-.34.196-.501.305a.533.533 0 1 0 .593.886c.137-.091.278-.177.423-.257a.533.533 0 1 0-.515-.934zM14.164 5.057a.533.533 0 1 0 .904-.567 9.413 9.413 0 0 0-.315-.471.533.533 0 1 0-.868.621c.097.136.191.275.28.417zM23.915 1.129a.753.753 0 0 0 .067-.004c.165-.021.332-.037.5-.049a.534.534 0 0 0-.07-1.064c-.19.012-.378.031-.563.054a.534.534 0 0 0 .066 1.063zM21.938 9.889a.534.534 0 1 0 .782.725c.111-.119.233-.233.363-.336a.533.533 0 1 0-.663-.835 4.436 4.436 0 0 0-.482.446zM17.101 5.225a.533.533 0 0 0 .735-.168c.089-.142.182-.281.28-.417a.533.533 0 0 0-.868-.621c-.11.154-.215.31-.315.471a.533.533 0 0 0 .168.735zM21.333 15.99a.533.533 0 0 0 .533-.533v-.267a.533.533 0 1 0-1.066 0v.267c0 .294.238.533.533.533zM18.655 10.836a.534.534 0 0 0 .601-.457c.022-.164.051-.326.087-.486a.533.533 0 1 0-1.04-.236c-.043.19-.078.383-.105.579a.533.533 0 0 0 .457.6zM15.025 6.872c.053.158.101.317.146.479a.535.535 0 0 0 .654.375.542.542 0 0 0 .175-.087.513.513 0 0 0 .315.106c.234 0 .45-.156.514-.394.044-.162.092-.322.146-.479a.529.529 0 0 0-.976-.402.529.529 0 0 0-.976.402zM19.114 3.283a.531.531 0 0 0 .35-.131c.126-.11.256-.217.388-.318a.534.534 0 0 0-.65-.846c-.15.115-.296.235-.438.359a.534.534 0 0 0 .35.936zM19.529 7.017a7.225 7.225 0 0 0-.332.482.534.534 0 0 0 .903.569c.089-.14.182-.277.282-.409a.534.534 0 0 0-.852-.642zM24.521 4.278a6.58 6.58 0 0 0-.583.07.533.533 0 0 0 .173 1.052c.163-.027.326-.046.492-.059a.533.533 0 1 0-.082-1.063zM26.494 1.168c.166.027.331.058.494.094a.535.535 0 0 0 .636-.407.533.533 0 0 0-.407-.635 9.208 9.208 0 0 0-.555-.105.532.532 0 1 0-.167 1.053zM27.407 4.661a6.744 6.744 0 0 0-.561-.174.533.533 0 1 0-.273 1.031 5.4 5.4 0 0 1 .473.147.533.533 0 0 0 .36-1.005zM24.85 8.528c-.294.015-.521.265-.506.559s.245.518.559.506c.164-.008.333-.003.495.013a4.236 4.236 0 0 0-.547-1.078zM31.073 3.549a.534.534 0 1 0 .788-.719 7.631 7.631 0 0 0-.195-.206.533.533 0 0 0-.763.747c.058.058.114.118.169.178zM22.933 20.256h-6.4a.533.533 0 1 0 0 1.066h6.4a2.639 2.639 0 0 0 2.667-2.667v-1.067a.533.533 0 0 0-.533-.533H6.934a.533.533 0 0 0-.533.533v1.067a2.639 2.639 0 0 0 2.667 2.667h4.8v2.667a.533.533 0 1 0 1.066 0v-3.2a.533.533 0 0 0-.533-.533H9.068c-.898 0-1.6-.703-1.6-1.6v-.533h17.067v.533c0 .897-.703 1.6-1.6 1.6zM28.259 12.561c.005.075.008.152.008.229a.533.533 0 1 0 1.066 0c0-.102-.004-.204-.011-.305a.533.533 0 1 0-1.064.076zM27.132 9.633a.534.534 0 0 0 .047.753c.124.109.239.228.344.354a.533.533 0 0 0 .82-.682 4.25 4.25 0 0 0-.459-.471.534.534 0 0 0-.753.047zM16.533 12.226a.533.533 0 1 0-1.066 0v.593a.533.533 0 1 0 1.066 0v-.593zM16 14.656a.533.533 0 0 0-.533.533v.267a.533.533 0 1 0 1.066 0v-.267a.533.533 0 0 0-.533-.533zM18.133 15.456a.533.533 0 1 0 1.066 0v-.267a.533.533 0 1 0-1.066 0v.267zM16.533 9.59c0-.084.001-.167.004-.251a.531.531 0 0 0-.332-.505c-.02-.009-.043-.009-.065-.015-.04-.011-.078-.027-.121-.028l-.016-.001-.003.001-.003-.001-.016.001c-.043.001-.082.017-.121.028-.021.006-.045.006-.065.015a.53.53 0 0 0-.332.505c.003.084.004.167.004.251v.267a.533.533 0 1 0 1.066 0V9.59zM12.8 15.456a.533.533 0 1 0 1.066 0v-.267a.533.533 0 1 0-1.066 0v.267zM13.333 13.547a.533.533 0 0 0 .533-.533v-.542a.533.533 0 1 0-1.066 0v.542c0 .294.238.533.533.533zM11.2 15.456v-.267a.533.533 0 1 0-1.066 0v.267a.533.533 0 1 0 1.066 0zM3.725 10.809a.533.533 0 0 0 .752-.069c.105-.126.22-.245.344-.354a.533.533 0 0 0-.706-.801c-.165.145-.32.304-.459.472a.534.534 0 0 0 .069.751z"/><path fill="var(--color2, #d4c17f)" d="M29.333 25.59h-11.2v-2.667a.533.533 0 1 0-1.066 0v3.2c0 .294.238.533.533.533h11.2v2.667c0 .882-.718 1.6-1.6 1.6H4.8c-.882 0-1.6-.718-1.6-1.6v-2.667h12.311a.533.533 0 1 0 0-1.066H2.667a.533.533 0 0 0-.533.533v3.2a2.67 2.67 0 0 0 2.667 2.667h22.4a2.67 2.67 0 0 0 2.667-2.667v-3.2a.533.533 0 0 0-.533-.533z"/><path fill="var(--color2, #d4c17f)" d="M12.8 28.256v1.067a.533.533 0 1 0 1.066 0v-1.067a.533.533 0 1 0-1.066 0zM.557 10.39l-.019-.001a.533.533 0 0 0-.532.515c-.004.095-.006.19-.006.285a.533.533 0 1 0 1.066 0c0-.083.002-.165.005-.248a.533.533 0 0 0-.514-.551zM2.861 6.966a6.13 6.13 0 0 1 .372-.33.533.533 0 0 0-.674-.826 6.738 6.738 0 0 0-.437.389.534.534 0 0 0 .74.767zM1.451 7.841a.534.534 0 0 0-.716.238 6.916 6.916 0 0 0-.241.534.533.533 0 0 0 .99.396 5.75 5.75 0 0 1 .204-.453.534.534 0 0 0-.237-.716zM2.412 2.225c.09 0 .182-.023.266-.071a7.45 7.45 0 0 1 .441-.235.534.534 0 0 0-.471-.957 8.897 8.897 0 0 0-.502.267.534.534 0 0 0 .266.996zM7.467 28.256v1.067a.533.533 0 1 0 1.066 0v-1.067a.533.533 0 1 0-1.066 0zM31.208 9.307a.533.533 0 0 0 .297-.693 6.953 6.953 0 0 0-.241-.534.533.533 0 1 0-.953.478c.074.148.142.299.204.453a.532.532 0 0 0 .693.297zM31.994 10.904a.533.533 0 0 0-1.065.037c.003.083.005.165.005.248a.533.533 0 1 0 1.066 0c0-.095-.002-.19-.006-.285zM29.854 1.23a8.897 8.897 0 0 0-.502-.267.534.534 0 0 0-.471.957c.15.073.297.151.441.235a.536.536 0 0 0 .729-.196.534.534 0 0 0-.196-.729zM24.533 29.323v-1.067a.533.533 0 1 0-1.066 0v1.067a.533.533 0 1 0 1.066 0zM19.2 29.323v-1.067a.533.533 0 1 0-1.066 0v1.067a.533.533 0 1 0 1.066 0zM29.442 5.81a.532.532 0 1 0-.675.826c.129.105.253.214.372.33a.53.53 0 0 0 .754-.013.534.534 0 0 0-.014-.754 7.35 7.35 0 0 0-.437-.389zM3.248 11.991a.528.528 0 0 0-.57.494 4.394 4.394 0 0 0-.011.305.533.533 0 1 0 1.066 0c0-.077.003-.154.008-.229a.533.533 0 0 0-.494-.57zM10.565 11.778a.534.534 0 0 0-.459.598c.018.135.027.273.027.413v.092a.532.532 0 1 0 1.066 0v-.092c0-.186-.012-.372-.036-.553a.53.53 0 0 0-.599-.459zM9.963 1.61c.157.059.311.124.464.192a.533.533 0 1 0 .437-.973 10.415 10.415 0 0 0-.522-.217.535.535 0 0 0-.378.998zM9.756 6.045c.145.08.286.166.423.257a.534.534 0 0 0 .74-.146.533.533 0 0 0-.147-.74 7.268 7.268 0 0 0-.501-.305.534.534 0 0 0-.515.934zM.533 3.723a.532.532 0 0 0 .394-.174c.055-.06.111-.12.169-.178a.534.534 0 0 0-.763-.747 7.631 7.631 0 0 0-.195.206.534.534 0 0 0 .395.893zM8.917 10.278c.13.103.252.217.363.336a.531.531 0 0 0 .754.029.534.534 0 0 0 .028-.754 4.436 4.436 0 0 0-.482-.446.533.533 0 1 0-.663.835zM11.901 8.067a.533.533 0 1 0 .903-.569 8.064 8.064 0 0 0-.332-.482.534.534 0 0 0-.852.642c.1.132.194.268.282.409zM12.148 2.834c.132.102.262.209.388.318a.531.531 0 0 0 .752-.052.534.534 0 0 0-.052-.753 8.888 8.888 0 0 0-.438-.359.533.533 0 1 0-.65.846zM4.897 1.274a.552.552 0 0 0 .114-.012c.164-.036.329-.067.495-.094A.533.533 0 1 0 5.339.115c-.187.03-.372.065-.555.105a.533.533 0 0 0 .114 1.054zM7.517 1.076c.169.012.335.028.5.049a.532.532 0 0 0 .595-.463.533.533 0 0 0-.462-.596 9.412 9.412 0 0 0-.563-.054.533.533 0 1 0-.071 1.064zM13.058 9.256a.534.534 0 0 0-.403.638c.037.16.066.322.088.486a.535.535 0 0 0 1.058-.143 7.017 7.017 0 0 0-.105-.579.534.534 0 0 0-.638-.402zM4.773 5.697c.06 0 .121-.01.18-.031.155-.056.313-.105.473-.147a.533.533 0 0 0-.273-1.031c-.189.05-.377.109-.561.174a.534.534 0 0 0 .18 1.036zM7.397 5.341c.166.013.33.033.492.059a.531.531 0 0 0 .612-.439.533.533 0 0 0-.439-.613 6.926 6.926 0 0 0-.583-.07.533.533 0 1 0-.082 1.063zM6.547 9.609a.507.507 0 0 0 .055-.003c.162-.017.331-.021.495-.013a.534.534 0 0 0 .053-1.065 4.233 4.233 0 0 0-.657.017.534.534 0 0 0 .054 1.064z"/></symbol><symbol id="icon-building" viewBox="0 0 32 32"><path fill="var(--color2, #d4c17f)" d="M22.933 29.867H8a.533.533 0 0 0-.533.533v1.067a.533.533 0 0 0 1.066 0v-.533h14.4a.533.533 0 0 0 0-1.066zM11.733 13.333c0 .294.239.533.533.533h2.133a.533.533 0 0 0 .533-.533v-3.2a.533.533 0 0 0-.533-.533h-2.133a.533.533 0 0 0-.533.533v3.2zm1.067-2.666h1.067V12.8H12.8v-2.133zM6.933 6.4h-6.4A.533.533 0 0 0 0 6.933V17.6a.533.533 0 0 0 1.066 0V7.467h5.867a.533.533 0 0 0 0-1.066zM25.6 26.133c0 .294.239.533.533.533h2.133a.533.533 0 0 0 .533-.533v-3.2a.533.533 0 0 0-.533-.533h-2.133a.533.533 0 0 0-.533.533v3.2zm1.067-2.666h1.067V25.6h-1.067v-2.133zM2.667 19.2C.031 19.2 0 26.064 0 26.133c0 1.288.918 2.365 2.133 2.613v2.721a.533.533 0 0 0 1.066 0v-2.721a2.672 2.672 0 0 0 2.133-2.613c0-.069-.03-6.933-2.667-6.933zm0 8.533c-.882 0-1.6-.718-1.6-1.6 0-2.657.714-5.867 1.6-5.867s1.6 3.21 1.6 5.867c0 .882-.718 1.6-1.6 1.6zM5.867 16H3.734a.533.533 0 0 0-.533.533V17.6a.533.533 0 0 0 1.066 0v-.533h1.067v2.667a.533.533 0 0 0 1.066 0v-3.2a.533.533 0 0 0-.533-.533zM26.133 13.867h2.133a.533.533 0 0 0 .533-.533v-3.2a.533.533 0 0 0-.533-.533h-2.133a.533.533 0 0 0-.533.533v3.2c0 .294.239.533.533.533zm.534-3.2h1.067V12.8h-1.067v-2.133z"/><path fill="var(--color2, #d4c17f)" d="M5.867 9.6H3.734a.533.533 0 0 0-.533.533v3.2c0 .294.239.533.533.533h2.133a.533.533 0 0 0 .533-.533v-3.2a.533.533 0 0 0-.533-.533zm-.534 3.2H4.266v-2.133h1.067V12.8zM17.067 13.333c0 .294.239.533.533.533h2.133a.533.533 0 0 0 .533-.533v-3.2a.533.533 0 0 0-.533-.533H17.6a.533.533 0 0 0-.533.533v3.2zm1.066-2.666H19.2V12.8h-1.067v-2.133zM31.467 6.4h-6.4a.533.533 0 0 0 0 1.066h5.867v21.431a1.57 1.57 0 0 0-.807-.074c-.368-.663-1.068-1.091-1.859-1.091s-1.491.428-1.859 1.091a1.602 1.602 0 0 0-1.874 1.576c0 .882.718 1.6 1.6 1.6h4.267c.882 0 1.6-.718 1.6-1.6V6.932a.533.533 0 0 0-.533-.533zM30.4 30.933h-4.267a.533.533 0 0 1 0-1.066c.102 0 .199.029.289.087a.535.535 0 0 0 .809-.328c.113-.486.539-.826 1.036-.826s.923.34 1.036.826a.532.532 0 0 0 .809.328c.347-.224.822.05.822.446a.533.533 0 0 1-.533.533zM17.6 7.467h2.133a.533.533 0 0 0 .533-.533v-3.2a.533.533 0 0 0-.533-.533H17.6a.533.533 0 0 0-.533.533v3.2c0 .294.239.533.533.533zm.533-3.2H19.2V6.4h-1.067V4.267zM17.067 19.733c0 .294.239.533.533.533h2.133a.533.533 0 0 0 .533-.533v-3.2a.533.533 0 0 0-.533-.533H17.6a.533.533 0 0 0-.533.533v3.2zm1.066-2.666H19.2V19.2h-1.067v-2.133zM12.267 7.467H14.4a.533.533 0 0 0 .533-.533v-3.2a.533.533 0 0 0-.533-.533h-2.133a.533.533 0 0 0-.533.533v3.2c0 .294.239.533.533.533zm.533-3.2h1.067V6.4H12.8V4.267zM15.621 25.755c-.096.101-.155.24-.155.379s.059.277.155.379c.101.096.24.155.379.155s.277-.059.379-.155c.096-.101.155-.24.155-.379s-.059-.277-.155-.379a.559.559 0 0 0-.757 0zM11.733 19.733c0 .294.239.533.533.533h2.133a.533.533 0 0 0 .533-.533v-3.2a.533.533 0 0 0-.533-.533h-2.133a.533.533 0 0 0-.533.533v3.2zm1.067-2.666h1.067V19.2H12.8v-2.133z"/><path fill="var(--color2, #d4c17f)" d="M10.667 22.933c0 .294.239.533.533.533h1.6v4.8a.533.533 0 0 0 1.066 0v-4.8h4.267v4.8a.533.533 0 0 0 1.066 0v-4.8h1.6a.533.533 0 0 0 0-1.066h-9.6a.533.533 0 0 0-.533.533zM25.6 19.733c0 .294.239.533.533.533h2.133a.533.533 0 0 0 .533-.533v-3.2a.533.533 0 0 0-.533-.533h-2.133a.533.533 0 0 0-.533.533v3.2zm1.067-2.666h1.067V19.2h-1.067v-2.133z"/><path fill="var(--color2, #d4c17f)" d="M22.933 0H9.066a.533.533 0 0 0-.533.533v27.733a.533.533 0 0 0 1.066 0v-27.2h12.8v27.2a.533.533 0 0 0 1.066 0V.533A.533.533 0 0 0 22.932 0z"/></symbol><symbol id="icon-bench" viewBox="0 0 32 32"><path fill="var(--color2, #d4c17f)" d="M29.333 18.133a.533.533 0 0 0 .533-.533v-2.133a.533.533 0 0 0-.533-.533h-2.667v-.533a.533.533 0 1 0-1.066 0v.533H10.667v-.533a.533.533 0 0 0-1.066 0v.533H6.934a.533.533 0 0 0-.533.533V17.6c0 .294.239.533.533.533h22.4zM7.467 17.067V16H28.8v1.067H7.467zM19.2 11.733c-.862 0-1.42.655-1.481.731-.185.227-.15.558.075.745s.561.155.75-.068c.002-.004.291-.34.655-.34s.653.337.653.337a.532.532 0 1 0 .827-.672c-.061-.075-.618-.731-1.48-.731z"/><path fill="var(--color2, #d4c17f)" d="M29.333 22.4a.533.533 0 0 0 .533-.533v-2.133a.533.533 0 0 0-.533-.533h-2.667v-.533a.533.533 0 1 0-1.066 0v.533H10.667v-.533a.533.533 0 0 0-1.066 0v.533H6.934a.533.533 0 0 0-.533.533v2.133c0 .294.239.533.533.533h22.4zM7.467 21.333v-1.067H28.8v1.067H7.467zM21.986 10.469a.532.532 0 1 0 .827-.672c-.061-.075-.618-.731-1.481-.731s-1.42.655-1.481.731a.534.534 0 0 0 .824.677c.003-.004.292-.34.656-.34s.653.336.653.336zM.536 6.987c.027.273.257.48.531.48h3.2a.534.534 0 0 0 .531-.48l.533-5.333a.534.534 0 0 0-.53-.586h-1.6V.535a.533.533 0 0 0-1.066 0v.533h-1.6a.534.534 0 0 0-.53.586l.533 5.333zm3.675-4.854L3.784 6.4H1.549l-.427-4.267H4.21z"/><path fill="var(--color2, #d4c17f)" d="M14.933 12.267c0 .596.244 1.151.686 1.561a.532.532 0 0 0 .754-.029.534.534 0 0 0-.028-.754 1.052 1.052 0 0 1-.345-.779c0-.442.281-.842.7-.996a.532.532 0 0 0 .178-.892 1.052 1.052 0 0 1-.345-.779c0-.555.437-1.019.994-1.057a.531.531 0 0 0 .357-.892 1.063 1.063 0 0 1-.284-.717c0-.555.437-1.019.994-1.057a.531.531 0 0 0 .357-.892 1.063 1.063 0 0 1-.284-.717c0-.477.325-.898.789-1.023a.533.533 0 0 0 .356-.713 1.068 1.068 0 1 1 2.056-.397c0 .133-.027.266-.078.397a.535.535 0 0 0 .356.713c.465.126.789.547.789 1.023 0 .262-.101.517-.284.717a.532.532 0 0 0 .357.892c.557.038.994.502.994 1.057 0 .262-.101.517-.284.717a.532.532 0 0 0 .357.892c.557.038.994.502.994 1.057 0 .296-.122.573-.345.779a.534.534 0 0 0 .179.892c.419.154.7.555.7.996a.533.533 0 1 0 1.066 0c0-.65-.301-1.254-.791-1.652a2.1 2.1 0 0 0 .258-1.015c0-.834-.491-1.567-1.206-1.914.092-.239.14-.494.14-.753 0-.834-.491-1.567-1.206-1.914.092-.239.14-.494.14-.753 0-.778-.428-1.48-1.086-1.852a2.136 2.136 0 0 0-2.115-2.415 2.135 2.135 0 0 0-2.114 2.415 2.133 2.133 0 0 0-1.086 1.852c0 .259.048.514.14.753a2.132 2.132 0 0 0-1.206 1.914c0 .259.048.514.14.753a2.132 2.132 0 0 0-1.206 1.914c0 .361.09.707.258 1.015a2.134 2.134 0 0 0-.792 1.652z"/><path fill="var(--color2, #d4c17f)" d="M20.063 7.425a.536.536 0 0 0 .697-.288c.01-.026.025-.054.04-.082a.719.719 0 0 1 .039.079.534.534 0 0 0 .989-.401c-.059-.145-.385-.866-1.028-.866s-.969.722-1.028.866c-.11.271.02.58.291.692zM31.467 30.933h-8.533a.533.533 0 1 0 0 1.066h8.533a.533.533 0 1 0 0-1.066zM31.467 23.467h-4.8v-.533a.533.533 0 1 0-1.066 0v.533H10.668v-.533a.533.533 0 0 0-1.066 0v.533h-4.8a.533.533 0 0 0-.533.533v2.133c0 .294.239.533.533.533h1.6v2.667a.533.533 0 0 0 1.066 0v-2.667h21.333v2.667a.533.533 0 1 0 1.066 0v-2.667h1.6a.533.533 0 0 0 .533-.533V24a.533.533 0 0 0-.533-.533zm-.534 2.133h-25.6v-1.067h25.6V25.6z"/><path fill="var(--color2, #d4c17f)" d="M8 30.933H3.2V9.066a.533.533 0 0 0-1.066 0v21.867h-1.6a.533.533 0 0 0 0 1.066h7.467a.533.533 0 0 0 0-1.066zM20.8 30.933h-1.067a.533.533 0 1 0 0 1.066H20.8a.533.533 0 1 0 0-1.066zM16.533 30.933H11.2a.533.533 0 0 0 0 1.066h5.333a.533.533 0 1 0 0-1.066z"/></symbol><symbol id="icon-phone" viewBox="0 0 32 32"><path d="M31.979 26.337a2.457 2.457 0 0 0-1.218-1.819l-7.895-4.545a2.476 2.476 0 0 0-2.983.395l-1.555 1.555a1.138 1.138 0 0 1-1.522.085c-1.226-.986-2.433-2.072-3.587-3.227s-2.24-2.362-3.227-3.587a1.14 1.14 0 0 1 .085-1.523l1.555-1.555a2.479 2.479 0 0 0 .395-2.983L7.482 1.239C7.095.567 6.432.123 5.663.021S4.138.176 3.59.724L1.247 3.067C-.388 4.702-.415 7.694 1.173 11.49c1.527 3.65 4.375 7.669 8.022 11.315S16.86 29.3 20.51 30.827c1.869.782 3.542 1.172 4.955 1.172 1.457 0 2.638-.416 3.468-1.246l2.343-2.343a2.455 2.455 0 0 0 .703-2.073zm-9.629-5.466 7.895 4.545c.39.225.648.61.707 1.056.05.375-.048.744-.268 1.041l-10.492-5.988.426-.426a1.438 1.438 0 0 1 1.732-.229zM5.527 1.049c.447.059.832.317 1.056.707l4.545 7.895a1.439 1.439 0 0 1-.229 1.732l-.391.391L4.487 1.317a1.419 1.419 0 0 1 1.039-.268zM28.2 30.02c-1.299 1.299-3.956 1.245-7.29-.149-3.529-1.476-7.429-4.245-10.982-7.798S3.605 14.62 2.13 11.091C.736 7.757.681 5.1 1.981 3.801L3.72 2.062l6.03 10.473-.404.404a2.174 2.174 0 0 0-.16 2.905c1.01 1.255 2.12 2.49 3.301 3.67s2.416 2.291 3.671 3.301a2.175 2.175 0 0 0 2.906-.16l.369-.369 10.506 5.996-1.737 1.738z"/></symbol><symbol id="icon-placeholder" viewBox="0 0 32 32"><path d="M16.104 7.013c-2.255 0-4.091 1.836-4.091 4.091s1.836 4.091 4.091 4.091 4.091-1.836 4.091-4.091-1.836-4.091-4.091-4.091zm0 7.013c-1.611 0-2.922-1.311-2.922-2.922s1.311-2.922 2.922-2.922c1.611 0 2.922 1.311 2.922 2.922s-1.311 2.922-2.922 2.922z"/><path d="M23.926 3.283C21.809 1.166 18.995 0 16.001 0s-5.808 1.166-7.924 3.283C4.16 7.2 3.673 14.569 7.023 19.034l8.979 12.967 8.965-12.949C28.33 14.569 27.844 7.2 23.926 3.283zm.092 15.085-8.017 11.578-8.03-11.596c-3.038-4.051-2.603-10.706.933-14.241 1.896-1.896 4.416-2.94 7.097-2.94s5.202 1.044 7.098 2.94c3.536 3.535 3.971 10.19.919 14.259z"/></symbol></defs></svg>